<?xml version="1.0" encoding="utf-8"?>
<!-- Generator: Adobe Illustrator 27.9.5, SVG Export Plug-In . SVG Version: 9.03 Build 54986)  -->
<svg version="1.1" id="Layer_1" xmlns="http://www.w3.org/2000/svg" xmlns:xlink="http://www.w3.org/1999/xlink" x="0px" y="0px"
	 viewBox="0 0 298.04 137.25" style="enable-background:new 0 0 298.04 137.25;" xml:space="preserve">
<style type="text/css">
	.st0{fill:#1D1D1B;}
	.st1{fill-rule:evenodd;clip-rule:evenodd;fill:#1D1D1B;}
	.st2{fill:#FFFFFF;}
	.st3{fill-rule:evenodd;clip-rule:evenodd;fill:#FFFFFF;}
	.st4{fill:#7C706C;}
	.st5{fill:#9B9383;}
	.st6{fill:#B29E6C;}
	.st7{fill:#43525A;}
	.st8{fill:#485156;}
	.st9{fill:#00ADC1;}
	.st10{fill:#007188;}
	.st11{fill:#908270;}
	.st12{fill:#7E706E;}
	.st13{fill:#B3A16E;}
	.st14{fill:#9C9587;}
	.st15{fill:#7B6F6B;}
	.st16{fill:#B39F6C;}
	.st17{fill:#9C9484;}
	.st18{fill:#1C3144;}
	.st19{fill:#E1CC29;}
	.st20{fill:#0E2138;}
	.st21{fill:#00ADBB;}
</style>
<g>
	<path class="st8" d="M273.17,22.07c-4.16,0-8.75,2.3-10.57,6.48l-19.43,44.52l-7-44.52c-0.82-4.17-3.64-6.48-8.12-6.48l-24.61,0
		l21.05,73.96c0.38,1.42,0.46,2.99,0.18,4.65c-1.11,6.17-7,11.18-13.18,11.18l-13.77,0c-3.5,0-5.8,2.16-6.94,7.07l-3.06,18.32
		l24.27,0c12.67,0,27.54-6.36,37.46-23.95l48.6-91.23L273.17,22.07z"/>
	<path class="st8" d="M34.27,0c7.27,0,10.78,2.9,9.51,10.18l-2.11,11.87l16.7,0L54.7,42.9l-16.7,0l-4.55,25.83
		c-1.58,8.98,7.33,10.19,12.44,10.19c1.02,0,1.86-0.04,2.47-0.06l-4.09,23.25c-1.25,0.13-2.57,0.31-5.31,0.31
		c-12.68,0-36.66-3.39-31.94-30.15l5.15-29.37L0,42.9l3.67-20.85l12.04,0L19.6,0L34.27,0z"/>
	<path class="st9" d="M174.59,23.01l-4.29,24.32c5.3,2.69,8.92,8.19,8.92,14.53c0,8.36-6.25,15.2-14.33,16.18l-4.28,24.32
		c0.76,0.05,1.53,0.07,2.29,0.07c22.41,0,40.57-18.17,40.57-40.57C203.46,43.53,191.3,28.04,174.59,23.01"/>
	<path class="st9" d="M155.49,76.38c-5.28-2.68-8.91-8.19-8.91-14.53c0-8.31,6.28-15.2,14.34-16.17l4.28-24.31
		c-0.77-0.05-1.54-0.08-2.3-0.08c-22.39,0-40.56,18.18-40.56,40.56c0,18.32,12.16,33.83,28.88,38.86L155.49,76.38z"/>
	<path class="st8" d="M68.04,22.07l14.35,0c7.27,0,10.77,2.91,9.48,10.19l-1.57,8.82c5.34-10.85,16.94-19.8,28.84-19.8
		c1.56,0,3.06,0.31,3.06,0.31l-4.65,26.29c0,0-2.08-0.48-5.33-0.48c-6.34,0-17.04,2.01-23.02,13.92c-1.43,2.93-2.52,6.5-3.27,10.81
		l-5.2,29.54l-26.73,0L68.04,22.07z"/>
	<path class="st8" d="M298.04,105.37c0,2.38-0.84,4.4-2.52,6.08c-1.67,1.67-3.69,2.51-6.06,2.51c-2.37,0-4.39-0.84-6.07-2.51
		c-1.68-1.68-2.52-3.7-2.52-6.08c0-2.36,0.84-4.39,2.52-6.06c1.68-1.67,3.7-2.51,6.07-2.51c2.37,0,4.4,0.84,6.06,2.51
		C297.2,100.98,298.04,103,298.04,105.37 M296.7,105.37c0-2.02-0.71-3.75-2.13-5.16c-1.41-1.43-3.12-2.15-5.11-2.15
		c-1.99,0-3.69,0.72-5.1,2.15c-1.41,1.42-2.1,3.14-2.1,5.16c0,2.03,0.7,3.76,2.1,5.18c1.41,1.43,3.11,2.15,5.1,2.15
		c1.98,0,3.7-0.72,5.11-2.15C295.99,109.13,296.7,107.4,296.7,105.37 M293.07,110.06h-1.53l-2.15-3.83h-1.42v3.83h-1.3v-9.4h3.19
		c0.83,0,1.53,0.27,2.1,0.82c0.57,0.54,0.86,1.21,0.86,2c0,1.31-0.67,2.18-2.02,2.59L293.07,110.06z M291.5,103.47
		c0-0.47-0.17-0.86-0.5-1.18c-0.33-0.32-0.76-0.47-1.28-0.47h-1.75l0,3.29h1.75c0.52,0,0.95-0.15,1.28-0.46
		C291.33,104.34,291.5,103.95,291.5,103.47"/>
	<path class="st8" d="M14.12,120.34l-2.37,0c-0.18,0-0.31,0.1-0.36,0.31l-0.14,0.62h-0.86l0.23-1c0.12-0.58,0.35-0.75,0.94-0.75H18
		c0.58,0,0.74,0.17,0.6,0.75l-0.22,1h-0.89l0.15-0.62c0.05-0.21-0.03-0.31-0.23-0.31h-2.34l-1.92,8.7h-0.95L14.12,120.34z"/>
	<path class="st8" d="M18.6,123.3c0.06-0.19-0.05-0.3-0.22-0.3h-0.58l0.19-0.78h0.96c0.58,0,0.77,0.24,0.66,0.78l-0.73,3.31
		c-0.25,1.06-0.27,2.01,1.04,2.01c1.53,0,2.8-1.36,3.13-2.85l0.72-3.25h0.92l-1.27,5.71c-0.03,0.19,0.05,0.3,0.24,0.3h0.57
		l-0.17,0.8h-0.94c-0.57,0-0.77-0.25-0.66-0.76l0.07-0.31c0.06-0.28,0.12-0.49,0.12-0.49h-0.02c-0.42,0.65-1.54,1.72-3.02,1.72
		c-1.62,0-2.11-0.86-1.71-2.63L18.6,123.3z M20.88,119.52h0.79l-0.26,1.16h-0.8L20.88,119.52z M22.91,119.52h0.81l-0.27,1.16h-0.8
		L22.91,119.52z"/>
	<path class="st8" d="M26.73,123.3c0.06-0.19-0.03-0.3-0.23-0.3h-0.56l0.17-0.78h0.95c0.56,0,0.78,0.23,0.65,0.75l-0.1,0.48
		c-0.07,0.29-0.14,0.52-0.14,0.52h0.02c0.56-1.03,1.49-1.82,2.55-1.82c0.19,0,0.37,0.04,0.37,0.04l-0.21,0.9
		c0,0-0.16-0.02-0.33-0.02c-0.95,0-1.85,0.75-2.37,1.74c-0.23,0.45-0.38,0.91-0.48,1.34l-0.63,2.88h-0.93L26.73,123.3z"/>
	<path class="st8" d="M31.98,120.61c0.04-0.2-0.03-0.3-0.23-0.3h-0.56l0.17-0.78h0.97c0.57,0,0.78,0.2,0.65,0.77l-1.01,4.52h0.7
		c0.26,0,0.61-0.08,0.85-0.32l2.25-2.26h1.13l-2.52,2.49c-0.44,0.42-0.61,0.49-0.61,0.49v0.01c0,0,0.17,0.11,0.3,0.51l0.73,2.21
		c0.08,0.22,0.2,0.3,0.56,0.3h0.38l-0.18,0.8H34.9c-0.67,0-0.83-0.12-1.02-0.68l-0.81-2.44c-0.09-0.27-0.42-0.3-0.66-0.3h-0.62
		l-0.76,3.41h-0.92L31.98,120.61z"/>
	<path class="st8" d="M38.17,123.3c0.04-0.19-0.05-0.3-0.23-0.3h-0.58l0.19-0.78h0.95c0.59,0,0.78,0.24,0.65,0.83l-1.08,4.88
		c-0.06,0.19,0.04,0.3,0.22,0.3h0.58l-0.18,0.8h-0.96c-0.58,0-0.78-0.25-0.65-0.83L38.17,123.3z M38.99,119.52h0.89l-0.27,1.16
		h-0.88L38.99,119.52z"/>
	<path class="st8" d="M40.03,131.05c0.6,0,1.12-0.5,1.5-1.12l0.62-0.93l-1.15-5.67c-0.05-0.24-0.15-0.32-0.41-0.32h-0.12l0.18-0.78
		h0.42c0.6,0,0.76,0.13,0.88,0.73l0.79,4.25c0.07,0.34,0.09,0.75,0.09,0.75h0.03c0,0,0.18-0.4,0.39-0.75l2.63-4.25
		c0.37-0.59,0.6-0.73,1.22-0.73h0.42l-0.17,0.78H47.2c-0.23,0-0.38,0.08-0.55,0.32l-4.51,7.12c-0.54,0.87-1.36,1.42-2.26,1.42
		c-0.96,0-1.34-0.65-1.34-0.65l0.6-0.68C39.13,130.54,39.45,131.05,40.03,131.05"/>
	<path class="st8" d="M51.47,122.06c1.89,0,2.52,1.45,2.16,3.15c-0.04,0.15-0.13,0.46-0.13,0.46h-5.24c-0.35,1.72,0.64,2.7,2.05,2.7
		c1.24,0,2.23-0.84,2.23-0.84l0.28,0.68c0,0-1.19,0.99-2.75,0.99c-2.01,0-3.23-1.47-2.76-3.57
		C47.81,123.38,49.63,122.06,51.47,122.06 M52.74,124.94c0.25-1.41-0.46-2.1-1.47-2.1c-1.12,0-2.26,0.73-2.79,2.1H52.74z"/>
	<polygon class="st8" points="56.36,119.38 57.32,119.38 56.05,121.7 55.32,121.7 	"/>
	<path class="st8" d="M58.38,123.3c0.05-0.19-0.04-0.3-0.22-0.3h-0.57l0.17-0.78h0.95c0.56,0,0.78,0.24,0.65,0.75l-0.06,0.31
		c-0.07,0.28-0.13,0.49-0.13,0.49h0.03c0.38-0.64,1.48-1.73,3.07-1.73c1.71,0,2.09,0.95,1.72,2.65l-0.72,3.23
		c-0.06,0.19,0.04,0.3,0.23,0.3h0.56l-0.17,0.8h-0.98c-0.57,0-0.76-0.25-0.64-0.83l0.73-3.26c0.24-1.09,0.28-2.01-1.03-2.01
		c-1.17,0-2.36,0.79-2.91,1.9c-0.14,0.3-0.24,0.62-0.31,0.93l-0.72,3.27h-0.92L58.38,123.3z"/>
	<path class="st8" d="M66.62,123.3c0.04-0.19-0.03-0.3-0.24-0.3h-0.56l0.18-0.78h0.96c0.58,0,0.76,0.24,0.64,0.83l-1.09,4.88
		c-0.03,0.19,0.04,0.3,0.24,0.3h0.57l-0.18,0.8h-0.96c-0.59,0-0.78-0.25-0.64-0.83L66.62,123.3z M67.44,119.52h0.88l-0.25,1.16h-0.9
		L67.44,119.52z"/>
	<path class="st8" d="M69.88,123.3c0.04-0.19-0.04-0.3-0.25-0.3h-0.55l0.16-0.78h0.97c0.56,0,0.76,0.24,0.65,0.75l-0.07,0.31
		c-0.06,0.28-0.13,0.49-0.13,0.49h0.03c0.38-0.64,1.5-1.73,3.09-1.73c1.69,0,2.07,0.95,1.7,2.65l-0.72,3.23
		c-0.04,0.19,0.04,0.3,0.23,0.3h0.58l-0.19,0.8h-0.96c-0.58,0-0.76-0.25-0.64-0.83l0.72-3.26c0.24-1.09,0.29-2.01-1.03-2.01
		c-1.17,0-2.34,0.79-2.9,1.9c-0.14,0.3-0.24,0.62-0.31,0.93l-0.73,3.27h-0.92L69.88,123.3z"/>
	<path class="st8" d="M86.72,119.34c2.7,0,4.38,2.14,3.78,4.87c-0.63,2.79-3.27,4.98-5.96,4.98c-2.71,0-4.36-2.19-3.74-4.98
		C81.42,121.48,84.03,119.34,86.72,119.34 M84.76,128.3c2.12,0,4.25-1.79,4.76-4.09c0.49-2.24-0.86-3.98-2.99-3.98
		c-2.14,0-4.24,1.73-4.73,3.98C81.29,126.51,82.61,128.3,84.76,128.3 M85.75,117.23h0.8l-0.26,1.17H85.5L85.75,117.23z
		 M87.78,117.23h0.8l-0.26,1.17h-0.79L87.78,117.23z"/>
	<path class="st8" d="M95.12,122.06c1.65,0,1.94,1.28,1.94,1.28h0.03c0,0,0.03-0.23,0.08-0.51l0.49-2.21c0.05-0.2-0.04-0.3-0.23-0.3
		h-0.57l0.18-0.78l0.95,0c0.6,0,0.78,0.22,0.65,0.82l-1.67,7.6c-0.06,0.19,0.03,0.3,0.23,0.3h0.56l-0.17,0.8h-0.95
		c-0.57,0-0.76-0.26-0.65-0.76c0.06-0.26,0.12-0.43,0.12-0.43h-0.02c0,0-0.87,1.35-2.64,1.35c-1.83,0-2.65-1.47-2.17-3.58
		C91.74,123.46,93.32,122.06,95.12,122.06 M96.57,125.62c0.31-1.38-0.09-2.74-1.57-2.74c-1.19,0-2.41,1.02-2.79,2.74
		c-0.37,1.67,0.26,2.75,1.54,2.75C94.9,128.37,96.15,127.55,96.57,125.62"/>
	<path class="st8" d="M103.28,122.06c1.89,0,2.55,1.45,2.17,3.15c-0.04,0.15-0.14,0.46-0.14,0.46l-5.23,0
		c-0.35,1.72,0.64,2.7,2.05,2.7c1.26,0,2.23-0.84,2.23-0.84l0.3,0.68c0,0-1.21,0.99-2.76,0.99c-2.01,0-3.24-1.47-2.77-3.57
		C99.62,123.38,101.46,122.06,103.28,122.06 M104.55,124.94c0.26-1.41-0.46-2.1-1.46-2.1c-1.12,0-2.28,0.73-2.81,2.1H104.55z"/>
	<path class="st8" d="M107.64,123.3c0.04-0.19-0.03-0.3-0.24-0.3h-0.56l0.17-0.78h0.94c0.58,0,0.78,0.24,0.67,0.75l-0.08,0.31
		c-0.05,0.28-0.14,0.49-0.14,0.49h0.03c0.54-0.93,1.79-1.73,2.86-1.73c1.25,0,1.77,0.58,1.72,1.71h0.04
		c0.57-0.91,1.73-1.71,2.88-1.71c1.66,0,2.05,0.95,1.68,2.65l-0.71,3.23c-0.05,0.19,0.03,0.3,0.23,0.3h0.57l-0.17,0.8l-0.97,0
		c-0.59,0-0.78-0.25-0.65-0.83l0.74-3.27c0.25-1.11,0.22-2.05-1.03-2.05c-1.04,0-2.08,0.93-2.58,1.92
		c-0.18,0.31-0.26,0.64-0.34,0.99l-0.72,3.23h-0.92l0.9-4.1c0.22-1.03,0.31-2.05-0.99-2.05c-1.1,0-2.14,0.97-2.65,2.01
		c-0.15,0.29-0.25,0.6-0.32,0.9l-0.71,3.23h-0.93L107.64,123.3z"/>
	<path class="st8" d="M123.19,122.06c1.88,0,2.53,1.45,2.15,3.15c-0.04,0.15-0.12,0.46-0.12,0.46h-5.24
		c-0.35,1.72,0.64,2.7,2.05,2.7c1.26,0,2.23-0.84,2.23-0.84l0.3,0.68c0,0-1.2,0.99-2.74,0.99c-2.02,0-3.25-1.47-2.77-3.57
		C119.52,123.38,121.35,122.06,123.19,122.06 M124.45,124.94c0.26-1.41-0.45-2.1-1.46-2.1c-1.13,0-2.28,0.73-2.81,2.1L124.45,124.94
		z"/>
	<path class="st8" d="M132.69,124.89l-1.62-4.19c-0.12-0.29-0.27-0.36-0.56-0.36h-0.23l0.19-0.82h0.36c0.65,0,0.87,0.08,1.13,0.75
		l1.03,2.69c0.17,0.51,0.34,1.08,0.34,1.08h0.02c0,0,0.41-0.57,0.81-1.08l2.21-2.69c0.55-0.67,0.81-0.75,1.47-0.75h0.36l-0.2,0.82
		h-0.21c-0.27,0-0.47,0.07-0.7,0.36l-3.49,4.19l-0.92,4.14h-0.94L132.69,124.89z"/>
	<path class="st8" d="M140.92,122.06c1.99,0,3.26,1.53,2.82,3.53c-0.45,2.05-2.41,3.61-4.38,3.61c-1.99,0-3.26-1.56-2.81-3.61
		C136.99,123.58,138.94,122.06,140.92,122.06 M139.53,128.37c1.45,0,2.9-1.19,3.26-2.79c0.34-1.54-0.59-2.69-2.05-2.69
		c-1.46,0-2.89,1.16-3.24,2.69C137.15,127.18,138.07,128.37,139.53,128.37 M140.09,119.52h0.8l-0.26,1.16l-0.8,0L140.09,119.52z
		 M142.12,119.52h0.78l-0.24,1.16h-0.82L142.12,119.52z"/>
	<path class="st8" d="M145.89,123.3c0.04-0.19-0.05-0.3-0.22-0.3h-0.58l0.18-0.78h0.96c0.56,0,0.77,0.24,0.66,0.75l-0.07,0.31
		c-0.06,0.28-0.14,0.49-0.14,0.49h0.03c0.38-0.64,1.5-1.73,3.09-1.73c1.69,0,2.08,0.95,1.7,2.65l-0.73,3.23
		c-0.03,0.19,0.06,0.3,0.24,0.3h0.56l-0.18,0.8h-0.95c-0.58,0-0.76-0.25-0.65-0.83l0.72-3.26c0.24-1.09,0.3-2.01-1.03-2.01
		c-1.17,0-2.34,0.79-2.9,1.9c-0.15,0.3-0.25,0.62-0.31,0.93l-0.73,3.27h-0.92L145.89,123.3z"/>
	<path class="st8" d="M154.22,122.98h-0.9l0.18-0.75h0.91l0.41-1.89h0.91l-0.42,1.89h1.72l-0.17,0.75h-1.71l-0.77,3.48
		c-0.35,1.61,0.62,1.8,1.14,1.8c0.18,0,0.3-0.02,0.3-0.02l-0.18,0.83c0,0-0.17,0.02-0.4,0.02c-0.78,0-2.31-0.25-1.81-2.52
		L154.22,122.98z"/>
	<path class="st8" d="M161.4,122.06c1.88,0,2.55,1.45,2.17,3.15c-0.05,0.15-0.14,0.46-0.14,0.46l-5.23,0
		c-0.35,1.72,0.63,2.7,2.04,2.7c1.25,0,2.24-0.84,2.24-0.84l0.29,0.68c0,0-1.19,0.99-2.75,0.99c-2.01,0-3.23-1.47-2.77-3.57
		C157.75,123.38,159.57,122.06,161.4,122.06 M162.67,124.94c0.26-1.41-0.46-2.1-1.46-2.1c-1.11,0-2.26,0.73-2.8,2.1L162.67,124.94z"
		/>
	<path class="st8" d="M165.76,123.3c0.03-0.19-0.05-0.3-0.24-0.3h-0.57l0.17-0.78h0.94c0.58,0,0.78,0.24,0.67,0.75l-0.08,0.31
		c-0.05,0.28-0.13,0.49-0.13,0.49h0.03c0.55-0.93,1.79-1.73,2.85-1.73c1.27,0,1.79,0.58,1.74,1.71h0.02
		c0.57-0.91,1.73-1.71,2.88-1.71c1.65,0,2.07,0.95,1.69,2.65l-0.73,3.23c-0.05,0.19,0.04,0.3,0.23,0.3h0.57l-0.17,0.8h-0.98
		c-0.57,0-0.76-0.25-0.62-0.83l0.72-3.27c0.25-1.11,0.22-2.05-1.04-2.05c-1.03,0-2.08,0.93-2.58,1.92
		c-0.17,0.31-0.26,0.64-0.34,0.99l-0.71,3.23h-0.92l0.91-4.1c0.23-1.03,0.3-2.05-0.99-2.05c-1.11,0-2.15,0.97-2.66,2.01
		c-0.14,0.29-0.23,0.6-0.31,0.9l-0.71,3.23h-0.92L165.76,123.3z"/>
	<path class="st8" d="M178.37,123.3c0.04-0.19-0.04-0.3-0.23-0.3h-0.57l0.19-0.78h0.96c0.58,0,0.77,0.24,0.62,0.83l-1.07,4.88
		c-0.03,0.19,0.05,0.3,0.24,0.3h0.56l-0.18,0.8h-0.96c-0.58,0-0.77-0.25-0.64-0.83L178.37,123.3z M179.19,119.52h0.89l-0.25,1.16
		h-0.91L179.19,119.52z"/>
</g>
</svg>
