<?xml version="1.0" encoding="UTF-8"?>
<svg id="Icon" xmlns="http://www.w3.org/2000/svg" viewBox="86 52 328 406">
  <defs>
    <style>
      .cls-1 {
        stroke: #aaff01;
      }

      .cls-1, .cls-2 {
        stroke-miterlimit: 10;
      }

      .cls-1, .cls-3 {
        fill: #aaff01;
      }

      .cls-4, .cls-2 {
        fill: #fff;
      }

      .cls-2 {
        stroke: #fff;
      }
    </style>
  </defs>
  <path class="cls-2" d="M253.18,136.08c7.62,3.71,15.25,7.42,22.87,11.13v94.42c-.18.42-2.99,6.93-9.58,7.95-4.18.65-7.4-1.29-8.34-1.91-48.72-28.72-97.45-57.44-146.17-86.15-3.93-2.44-6.27-6.87-6.07-11.52.28-6.69,5.65-10.15,6.07-10.42,34.61-20.13,69.22-40.27,103.83-60.4.21,8.48.41,16.96.62,25.43-24.93,14.31-49.86,28.61-74.78,42.92-.21.32-.93,1.48-.79,3.09.13,1.4.83,2.32,1.09,2.64,35.13,21.5,70.27,43.01,105.4,64.51,2.1,1.6,4.38,1.7,5.41.64.19-.2.6-.7.66-1.75-.07-26.85-.15-53.71-.22-80.56Z"/>
  <path class="cls-1" d="M246.82,192.8c-7.62-3.71-15.25-7.42-22.87-11.13v-94.42c.18-.42,2.99-6.93,9.58-7.95,4.18-.65,7.4,1.29,8.34,1.91,48.72,28.72,97.45,57.44,146.17,86.15,3.93,2.44,6.27,6.87,6.07,11.52-.28,6.69-5.65,10.15-6.07,10.42-34.61,20.13-69.22,40.27-103.83,60.4-.21-8.48-.41-16.96-.62-25.43,24.93-14.31,49.86-28.61,74.78-42.92.21-.32.93-1.48.79-3.09-.13-1.4-.83-2.32-1.09-2.64-35.13-21.5-70.27-43.01-105.4-64.51-2.1-1.6-4.38-1.7-5.41-.64-.19.2-.6.7-.66,1.75.07,26.85.15,53.71.22,80.56Z"/>
  <rect class="cls-2" x="309.04" y="55.78" width="45.48" height="46.79" rx="22.74" ry="22.74"/>
  <rect class="cls-3" x="145.48" y="208.78" width="45.48" height="46.79" rx="22.74" ry="22.74"/>
  <g>
    <path class="cls-4" d="M89.42,315.2c0-6.08,2.97-12.64,7.98-17.62,4.41-4.41,12.41-9.67,25.37-9.67h.13c10.9.02,19.47,3.39,25.47,10,7.92,8.72,8.41,20.01,8.28,24.13h-15.41c.08-1.02.31-8.85-4.33-13.85-2.95-3.23-7.69-4.87-14.03-4.9h-.1c-7.69,0-12.13,2.82-14.52,5.18-2.36,2.36-3.44,5.08-3.44,6.69,0,2.74,0,6.85,17.8,12.64l3.18,1c14.18,4.54,30.24,9.67,31.19,23.78.16,2.38.16,10.77-6.62,18-6,6.44-15.11,9.69-27.08,9.69h-.05c-9.75,0-18.16-3.28-24.34-9.54-6.1-6.13-9.54-14.75-9.44-23.62l15.39.18c-.05,4.69,1.8,9.44,4.98,12.62,3.28,3.31,7.77,4.97,13.41,4.97h.03c7.44,0,12.93-1.67,15.85-4.79,2.72-2.92,2.54-6.34,2.51-6.49-.23-3.67-13.93-8.03-20.49-10.13l-3.26-1.05c-20.18-6.57-28.44-14.44-28.44-27.24Z"/>
    <path class="cls-4" d="M229.17,344.97c0,19.47-14.93,35.31-33.29,35.31s-33.29-15.84-33.29-35.31,14.93-35.3,33.29-35.3,33.29,15.84,33.29,35.3ZM213.78,344.97c0-10.98-8.03-19.92-17.9-19.92s-17.9,8.94-17.9,19.92,8.03,19.92,17.9,19.92,17.9-8.93,17.9-19.92Z"/>
    <path class="cls-4" d="M283.99,353.59h15.98c-3.31,15.77-16.62,27.6-32.5,27.6-18.36,0-33.29-15.82-33.29-35.29s14.93-35.32,33.29-35.32c15.87,0,29.19,11.85,32.5,27.62h-15.98c-2.72-7.18-9.11-12.23-16.52-12.23-9.87,0-17.9,8.95-17.9,19.93s8.03,19.9,17.9,19.9c7.41,0,13.8-5.05,16.52-12.21Z"/>
    <path class="cls-4" d="M306.7,296.82c0-4.92,4-8.92,8.92-8.92s8.92,4,8.92,8.92-4,8.92-8.92,8.92-8.92-4-8.92-8.92ZM307.93,380.37v-70.74h15.25v70.74h-15.25Z"/>
    <path class="cls-4" d="M384.8,329.29v49.69h-15.39v-2.93c-5.67,3.68-11.33,4.22-14.08,4.22-13.63,0-24.72-11.09-24.72-24.72s11.09-24.72,24.72-24.72h14.08v-1.55c0-2.36-1.92-4.27-4.27-4.27h-9.81v-15.39h9.81c10.84,0,19.66,8.82,19.66,19.66ZM369.11,346.22h-13.78c-5.14,0-9.33,4.18-9.33,9.33s4.19,9.33,9.33,9.33c9.24,0,12.58-10.71,13.78-18.66Z"/>
    <path class="cls-4" d="M395.33,380.37v-92.47h15.25v92.47h-15.25Z"/>
  </g>
  <g>
    <path class="cls-3" d="M179.25,405.21h-19.52v-10.34h49.58v10.34h-19.71v49.83h-10.34v-49.83Z"/>
    <path class="cls-3" d="M213.67,435.22c1.19,5.81,5.87,10.12,11.46,10.12,4.18,0,7.86-2.42,9.94-6.09h10.34c-2.79,9.08-10.82,15.63-20.28,15.63-11.76,0-21.32-10.14-21.32-22.63s9.56-22.63,21.32-22.63c9.46,0,17.5,6.57,20.28,15.65.68,2.19,1.04,4.55,1.04,6.98,0,1.01-.07,1.99-.2,2.97h-32.59ZM235.07,425.26c-2.06-3.67-5.74-6.11-9.94-6.11s-7.88,2.44-9.94,6.11h19.88Z"/>
    <path class="cls-3" d="M281.84,437.36h10.34c-2.14,10.2-10.75,17.85-21.02,17.85-11.88,0-21.54-10.24-21.54-22.83s9.66-22.85,21.54-22.85c10.27,0,18.88,7.67,21.02,17.87h-10.34c-1.76-4.65-5.89-7.91-10.68-7.91-6.39,0-11.58,5.79-11.58,12.89s5.19,12.88,11.58,12.88c4.79,0,8.93-3.27,10.68-7.9Z"/>
    <path class="cls-3" d="M340.28,431.78v22.82h-9.96v-22.82c0-7.1-5.19-12.88-11.58-12.88s-11.58,5.78-11.58,12.88v22.9h-9.96v-22.9c0-.31.03-.62.04-.93v-35.98h9.87v17.72c3.36-2.29,7.34-3.64,11.62-3.64,11.87,0,21.53,10.24,21.53,22.84Z"/>
  </g>
</svg>