<?xml version="1.0" encoding="UTF-8"?>
<svg id="Icon" xmlns="http://www.w3.org/2000/svg" viewBox="72 154 884 164">
  <defs>
    <style>
      .cls-1 {
        stroke: #aaff01;
      }

      .cls-1, .cls-2 {
        stroke-miterlimit: 10;
      }

      .cls-1, .cls-3 {
        fill: #aaff01;
      }

      .cls-4, .cls-2 {
        fill: #fff;
      }

      .cls-2 {
        stroke: #fff;
      }
    </style>
  </defs>
  <path class="cls-2" d="M191.57,220.84c6.02,2.93,12.04,5.86,18.06,8.79v74.59c-.14.34-2.36,5.47-7.57,6.28-3.3.51-5.85-1.02-6.59-1.51-38.49-22.69-76.98-45.37-115.47-68.06-3.1-1.93-4.95-5.43-4.8-9.1.22-5.29,4.46-8.02,4.8-8.23,27.34-15.91,54.68-31.81,82.02-47.72.16,6.7.33,13.39.49,20.09-19.69,11.3-39.38,22.6-59.08,33.9-.17.25-.73,1.17-.62,2.44.1,1.1.65,1.83.86,2.08,27.75,16.99,55.51,33.97,83.26,50.96,1.66,1.26,3.46,1.34,4.27.5.15-.16.47-.56.52-1.38-.06-21.21-.12-42.43-.17-63.64Z"/>
  <path class="cls-1" d="M186.54,265.65c-6.02-2.93-12.04-5.86-18.06-8.79v-74.59c.14-.34,2.36-5.47,7.57-6.28,3.3-.51,5.85,1.02,6.59,1.51,38.49,22.69,76.98,45.37,115.47,68.06,3.1,1.93,4.95,5.43,4.8,9.1-.22,5.29-4.46,8.02-4.8,8.23-27.34,15.91-54.68,31.81-82.02,47.72-.16-6.7-.33-13.39-.49-20.09,19.69-11.3,39.38-22.6,59.08-33.9.17-.25.73-1.17.62-2.44-.1-1.1-.65-1.83-.86-2.08-27.75-16.99-55.51-33.97-83.26-50.96-1.66-1.26-3.46-1.34-4.27-.5-.15.16-.47.56-.52,1.38.06,21.21.12,42.43.17,63.64Z"/>
  <rect class="cls-2" x="235.69" y="157.41" width="35.93" height="36.96" rx="17.97" ry="17.97"/>
  <rect class="cls-3" x="106.49" y="278.27" width="35.93" height="36.96" rx="17.97" ry="17.97"/>
  <g>
    <path class="cls-4" d="M331.08,230.65c0-6.08,2.97-12.64,7.98-17.62,4.41-4.41,12.41-9.67,25.37-9.67h.13c10.9.02,19.47,3.39,25.47,10,7.92,8.72,8.41,20.01,8.28,24.13h-15.41c.08-1.02.31-8.85-4.33-13.85-2.95-3.23-7.69-4.87-14.03-4.9h-.1c-7.69,0-12.13,2.82-14.52,5.18-2.36,2.36-3.44,5.08-3.44,6.69,0,2.74,0,6.85,17.8,12.64l3.18,1c14.18,4.54,30.24,9.67,31.19,23.78.16,2.38.16,10.77-6.62,18-6,6.44-15.11,9.69-27.08,9.69h-.05c-9.75,0-18.16-3.28-24.34-9.54-6.1-6.13-9.54-14.75-9.44-23.62l15.39.18c-.05,4.69,1.8,9.44,4.98,12.62,3.28,3.31,7.77,4.97,13.41,4.97h.03c7.44,0,12.93-1.67,15.85-4.79,2.72-2.92,2.54-6.34,2.51-6.49-.23-3.67-13.93-8.03-20.49-10.13l-3.26-1.05c-20.18-6.57-28.44-14.44-28.44-27.24Z"/>
    <path class="cls-4" d="M470.83,260.43c0,19.47-14.93,35.31-33.29,35.31s-33.29-15.84-33.29-35.31,14.93-35.3,33.29-35.3,33.29,15.84,33.29,35.3ZM455.44,260.42c0-10.98-8.03-19.92-17.9-19.92s-17.9,8.94-17.9,19.92,8.03,19.92,17.9,19.92,17.9-8.93,17.9-19.92Z"/>
    <path class="cls-4" d="M525.65,269.04h15.98c-3.31,15.77-16.62,27.6-32.5,27.6-18.36,0-33.29-15.82-33.29-35.29s14.93-35.32,33.29-35.32c15.87,0,29.19,11.85,32.5,27.62h-15.98c-2.72-7.18-9.11-12.23-16.52-12.23-9.87,0-17.9,8.95-17.9,19.93s8.03,19.9,17.9,19.9c7.41,0,13.8-5.05,16.52-12.21Z"/>
    <path class="cls-4" d="M548.36,212.28c0-4.92,4-8.92,8.92-8.92s8.92,4,8.92,8.92-4,8.92-8.92,8.92-8.92-4-8.92-8.92ZM549.59,295.83v-70.74h15.25v70.74h-15.25Z"/>
    <path class="cls-4" d="M626.45,244.75v49.69h-15.39v-2.93c-5.67,3.68-11.33,4.22-14.08,4.22-13.63,0-24.72-11.09-24.72-24.72s11.09-24.72,24.72-24.72h14.08v-1.55c0-2.36-1.92-4.27-4.27-4.27h-9.81v-15.39h9.81c10.84,0,19.66,8.82,19.66,19.66ZM610.77,261.68h-13.78c-5.14,0-9.33,4.18-9.33,9.33s4.19,9.33,9.33,9.33c9.24,0,12.58-10.71,13.78-18.66Z"/>
    <path class="cls-4" d="M636.99,295.83v-92.47h15.25v92.47h-15.25Z"/>
  </g>
  <g>
    <path class="cls-3" d="M704.05,219.35h-30.18v-15.99h76.64v15.99h-30.47v77.03h-15.99v-77.03Z"/>
    <path class="cls-3" d="M757.26,265.73c1.85,8.98,9.08,15.65,17.72,15.65,6.46,0,12.16-3.75,15.36-9.41h15.98c-4.31,14.03-16.72,24.16-31.34,24.16-18.18,0-32.96-15.67-32.96-34.98s14.77-34.98,32.96-34.98c14.62,0,27.06,10.16,31.34,24.19,1.05,3.38,1.62,7.03,1.62,10.8,0,1.56-.1,3.08-.31,4.59h-50.37ZM790.34,250.35c-3.18-5.67-8.87-9.44-15.36-9.44s-12.18,3.77-15.36,9.44h30.72Z"/>
    <path class="cls-3" d="M862.63,269.04h15.98c-3.31,15.77-16.62,27.6-32.5,27.6-18.36,0-33.29-15.82-33.29-35.29s14.93-35.32,33.29-35.32c15.87,0,29.19,11.85,32.5,27.62h-15.98c-2.72-7.18-9.11-12.23-16.52-12.23-9.87,0-17.9,8.95-17.9,19.93s8.03,19.9,17.9,19.9c7.41,0,13.8-5.05,16.52-12.21Z"/>
    <path class="cls-3" d="M952.97,260.42v35.28h-15.39v-35.28c0-10.98-8.03-19.92-17.9-19.92s-17.9,8.94-17.9,19.92v35.4h-15.39v-35.4c0-.49.05-.96.07-1.44v-55.62h15.25v27.39c5.19-3.55,11.35-5.63,17.97-5.63,18.36,0,33.29,15.84,33.29,35.3Z"/>
  </g>
</svg>