<?xml version="1.0" encoding="UTF-8"?>
<svg id="Icon" xmlns="http://www.w3.org/2000/svg" viewBox="0 0 500 500">
  <defs>
    <style>
      .cls-1 {
        stroke: #aaff01;
      }

      .cls-1, .cls-2 {
        stroke-miterlimit: 10;
      }

      .cls-1, .cls-3 {
        fill: #aaff01;
      }

      .cls-2 {
        fill: #fff;
        stroke: #fff;
      }
    </style>
  </defs>
  <path class="cls-2" d="M254.61,195.2c11.05,5.38,22.11,10.76,33.16,16.13v136.91c-.25.62-4.33,10.04-13.89,11.52-6.06.94-10.73-1.87-12.1-2.77-70.65-41.64-141.29-83.28-211.94-124.92-5.69-3.54-9.08-9.96-8.8-16.7.41-9.71,8.19-14.72,8.8-15.1,50.18-29.19,100.37-58.39,150.55-87.58.3,12.29.6,24.58.9,36.88-36.14,20.74-72.29,41.49-108.43,62.23-.31.47-1.35,2.15-1.14,4.48.18,2.03,1.2,3.36,1.59,3.82,50.94,31.18,101.89,62.36,152.83,93.54,3.04,2.31,6.35,2.46,7.84.92.28-.29.87-1.02.95-2.54-.11-38.94-.21-77.88-.32-116.82Z"/>
  <path class="cls-1" d="M245.39,277.44c-11.05-5.38-22.11-10.76-33.16-16.13V124.4c.25-.62,4.33-10.04,13.89-11.52,6.06-.94,10.73,1.87,12.1,2.77,70.65,41.64,141.29,83.28,211.94,124.92,5.69,3.54,9.08,9.96,8.8,16.7-.41,9.71-8.19,14.72-8.8,15.1-50.18,29.19-100.37,58.39-150.55,87.58-.3-12.29-.6-24.58-.9-36.88,36.14-20.74,72.29-41.49,108.43-62.23.31-.47,1.35-2.15,1.14-4.48-.18-2.03-1.2-3.36-1.59-3.82-50.94-31.18-101.89-62.36-152.83-93.54-3.04-2.31-6.35-2.46-7.84-.92-.28.29-.87,1.02-.95,2.54.11,38.94.21,77.88.32,116.82Z"/>
  <rect class="cls-2" x="335.6" y="78.77" width="65.95" height="67.85" rx="32.98" ry="32.98"/>
  <rect class="cls-3" x="98.45" y="300.62" width="65.95" height="67.85" rx="32.98" ry="32.98"/>
</svg>